#!OML:ASF X:\für Bonn\!DataBase\2005_08_11_Bastian_Final\c3d\Bastian.ASF
:FULLY-SPECIFIED
:DEGREES
228
root 0.734323 6.64428 18.2049 -577.767 -15.5659 -170.273
lowerback 75.9895 2.52329 13.3204
upperback 24.7826 -9.22853 1.75082
thorax 8.44385 -11.2223 -1.3811
lowerneck -7.61443 -8.19946 -9.47956
upperneck -22.0999 -10.2408 25.0673
head -3.11395 -7.44495 9.65011
rclavicle -7.95139e-015 -3.89618e-014
rhumerus 0.566614 55.3251 -69.4333
rradius 35.9961
rwrist -24.9697
rhand -20.9352 -1.76158
rfingers 7.12502
rthumb 5.43693 -31.6718
lclavicle -7.95139e-015 -3.89618e-014
lhumerus 3.52477 -19.0056 59.5312
lradius 17.1555
lwrist 37.0707
lhand -24.7398 5.49087
lfingers 7.12502
lthumb 1.76283 35.4633
rfemur -66.5239 -37.0873 25.3696
rtibia 141.515
rfoot -35.4423 -2.62123
rtoes -5.60624
lfemur -75.9041 20.1339 -25.7268
ltibia 138.073
lfoot -24.1971 -15.1056
ltoes 17.9074
229
root 0.708396 6.50669 18.1999 -578.476 -15.3782 -170.069
lowerback 75.8171 2.72127 13.3365
upperback 24.869 -9.1041 1.9184
thorax 8.55653 -11.2501 -1.27313
lowerneck -7.50359 -8.21203 -9.49883
upperneck -21.8664 -10.2736 24.8708
head -3.07349 -7.40956 9.5715
rclavicle -3.02153e-014 1.82882e-014
rhumerus -0.0437989 56.1225 -69.8169
rradius 35.6744
rwrist -25.6917
rhand -21.0646 -2.11745
rfingers 7.12502
rthumb 5.31198 -32.0309
lclavicle -3.02153e-014 1.82882e-014
lhumerus 3.02488 -17.7232 60.6587
lradius 16.7806
lwrist 36.6368
lhand -25.5003 5.2695
lfingers 7.12502
lthumb 1.02834 35.2468
rfemur -66.7037 -38.5073 25.247
rtibia 142.385
rfoot -35.5712 -2.34793
rtoes -5.55313
lfemur -76.3813 20.6968 -25.9645
ltibia 138.97
lfoot -24.0987 -14.933
ltoes 18.7622
230
root 0.680329 6.37228 18.195 -579.169 -15.1915 -169.877
lowerback 75.6202 2.88417 13.3665
upperback 24.9475 -8.98629 2.05157
thorax 8.6503 -11.2643 -1.20353
lowerneck -7.38536 -8.22477 -9.49953
upperneck -21.6164 -10.3051 24.6877
head -3.02948 -7.37407 9.49386
rclavicle -4.6118e-014 -8.98507e-014
rhumerus -0.799069 56.9098 -70.3675
rradius 35.3387
rwrist -26.3909
rhand -21.1754 -2.45752
rfingers 7.12502
rthumb 5.20497 -32.3736
lclavicle -4.6118e-014 -8.98507e-014
lhumerus 2.45882 -16.5562 61.713
lradius 16.4365
lwrist 36.2506
lhand -26.2921 4.67607
lfingers 7.12502
lthumb 0.263652 34.6556
rfemur -66.8561 -40.0116 25.0629
rtibia 143.219
rfoot -35.7089 -2.10143
rtoes -5.57481
lfemur -76.839 21.2397 -26.2481
ltibia 139.852
lfoot -24.0684 -14.6526
ltoes 19.3507
231
root 0.65007 6.24059 18.1898 -579.923 -14.9763 -169.666
lowerback 75.4099 3.03175 13.4506
upperback 25.0622 -8.88949 2.2079
thorax 8.79587 -11.2982 -1.13466
lowerneck -7.35083 -8.25899 -9.56947
upperneck -21.3316 -10.3656 24.5109
head -2.95129 -7.34352 9.42049
rclavicle 1.43125e-014 -2.54444e-014
rhumerus -1.51625 57.735 -70.8642
rradius 35.0179
rwrist -27.0792
rhand -21.2806 -2.82211
rfingers 7.12502
rthumb 5.10342 -32.7407
lclavicle 1.43125e-014 -2.54444e-014
lhumerus 1.87983 -15.0038 62.81
lradius 16.0725
lwrist 35.4255
lhand -26.9207 3.69048
lfingers 7.12502
lthumb -0.343523 33.6699
rfemur -66.8814 -41.6321 24.8073
rtibia 144.028
rfoot -35.9001 -1.79087
rtoes -5.73865
lfemur -77.2117 21.8393 -26.5026
ltibia 140.706
lfoot -24.0017 -14.371
ltoes 20.1208
232
root 0.619005 6.11338 18.1843 -580.717 -14.7863 -169.498
lowerback 75.2287 3.18283 13.514
upperback 25.1696 -8.79986 2.35939
thorax 8.93453 -11.3394 -1.05921
lowerneck -7.24812 -8.28422 -9.57989
upperneck -21.0727 -10.4157 24.294
head -2.90168 -7.31339 9.33128
rclavicle 4.77083e-015 -6.36111e-015
rhumerus -2.46397 58.2972 -71.6461
rradius 34.6577
rwrist -27.5352
rhand -21.2994 -3.18901
rfingers 7.12502
rthumb 5.08527 -33.108
lclavicle 4.77083e-015 -6.36111e-015
lhumerus 1.23035 -13.619 63.789
lradius 15.7929
lwrist 34.7149
lhand -27.4846 2.34254
lfingers 7.12502
lthumb -0.888175 32.3204
rfemur -66.7456 -43.4995 24.3443
rtibia 144.806
rfoot -36.1408 -1.46696
rtoes -6.03591
lfemur -77.4392 22.4339 -26.7817
ltibia 141.531
lfoot -24.0296 -14.0899
ltoes 20.7869
233
root 0.58746 5.98866 18.1786 -581.537 -14.571 -169.308
lowerback 75.0442 3.33645 13.6041
upperback 25.2729 -8.68506 2.52956
thorax 9.07159 -11.3696 -0.980903
lowerneck -7.18917 -8.32534 -9.58646
upperneck -20.7524 -10.4881 24.0609
head -2.82458 -7.28501 9.22751
rclavicle 4.77083e-015 -4.85035e-014
rhumerus -3.5353 58.7463 -72.5641
rradius 34.2828
rwrist -27.9156
rhand -21.2105 -3.51528
rfingers 7.12502
rthumb 5.17108 -33.4322
lclavicle 4.77083e-015 -4.85035e-014
lhumerus 0.57609 -12.8774 64.6142
lradius 15.5722
lwrist 34.5085
lhand -27.9301 0.859959
lfingers 7.12502
lthumb -1.31843 30.8356
rfemur -66.5204 -45.387 23.8427
rtibia 145.549
rfoot -36.3741 -1.15327
rtoes -6.2464
lfemur -77.6412 23.0818 -27.0308
ltibia 142.328
lfoot -24.0043 -13.7692
ltoes 21.3622
234
root 0.555029 5.86703 18.1728 -582.384 -14.3722 -169.148
lowerback 74.8536 3.50494 13.673
upperback 25.3948 -8.58625 2.70571
thorax 9.23184 -11.4162 -0.88851
lowerneck -7.15414 -8.359 -9.54113
upperneck -20.4321 -10.5583 23.7745
head -2.75259 -7.25676 9.09752
rclavicle 7.63333e-014 1.90833e-014
rhumerus -4.65212 59.025 -73.5857
rradius 33.879
rwrist -28.1396
rhand -21.0631 -3.86609
rfingers 7.12502
rthumb 5.31344 -33.7795
lclavicle 7.63333e-014 1.90833e-014
lhumerus -0.110861 -13.318 65.2007
lradius 15.5355
lwrist 35.5029
lhand -28.3157 -0.712918
lfingers 7.12502
lthumb -1.69081 29.2601
rfemur -66.1516 -47.4941 23.1244
rtibia 146.267
rfoot -36.669 -0.759956
rtoes -6.51024
lfemur -77.7568 23.7128 -27.2862
ltibia 143.096
lfoot -23.9705 -13.4855
ltoes 22.0527
235
root 0.522921 5.75018 18.1673 -583.238 -14.1522 -168.985
lowerback 74.655 3.68088 13.7435
upperback 25.5158 -8.47795 2.89086
thorax 9.39121 -11.4606 -0.79005
lowerneck -7.12639 -8.37891 -9.49012
upperneck -20.1097 -10.6112 23.4633
head -2.68448 -7.21902 8.96047
rclavicle 1.27222e-014 6.83819e-014
rhumerus -5.81458 59.2346 -74.684
rradius 33.4157
rwrist -28.2633
rhand -20.8307 -4.16954
rfingers 7.12502
rthumb 5.53785 -34.0772
lclavicle 1.27222e-014 6.83819e-014
lhumerus -0.84977 -14.2342 65.7023
lradius 15.667
lwrist 36.9122
lhand -28.5673 -2.23946
lfingers 7.12502
lthumb -1.9338 27.7315
rfemur -65.6738 -49.5422 22.3358
rtibia 146.939
rfoot -36.9291 -0.422186
rtoes -6.82127
lfemur -77.826 24.377 -27.5247
ltibia 143.821
lfoot -23.9623 -13.1185
ltoes 22.4856
